<mxfile host="app.diagrams.net" modified="2023-08-29T09:07:58.656Z" agent="Mozilla/5.0 (Windows NT 10.0; Win64; x64) AppleWebKit/537.36 (KHTML, like Gecko) Chrome/116.0.0.0 Safari/537.36" etag="PwaHm7Qqh0Waex6TnUNa" version="21.6.9" type="device">
  <diagram name="Page-1" id="2TAQhVwExhuw3sK73pKR">
    <mxGraphModel dx="398" dy="244" grid="1" gridSize="10" guides="1" tooltips="1" connect="1" arrows="1" fold="1" page="1" pageScale="1" pageWidth="1400" pageHeight="850" math="0" shadow="0">
      <root>
        <mxCell id="0" />
        <mxCell id="1" parent="0" />
        <mxCell id="RzWKUUiDs5_2_X1Qv3o_-1" value="" style="endArrow=none;dashed=1;html=1;dashPattern=1 3;strokeWidth=2;rounded=0;" edge="1" parent="1">
          <mxGeometry width="50" height="50" relative="1" as="geometry">
            <mxPoint x="280" y="680" as="sourcePoint" />
            <mxPoint x="280" y="30" as="targetPoint" />
          </mxGeometry>
        </mxCell>
        <mxCell id="RzWKUUiDs5_2_X1Qv3o_-2" value="" style="fontColor=#0066CC;verticalAlign=top;verticalLabelPosition=bottom;labelPosition=center;align=center;html=1;outlineConnect=0;fillColor=#CCCCCC;strokeColor=#6881B3;gradientColor=none;gradientDirection=north;strokeWidth=2;shape=mxgraph.networks.scanner;" vertex="1" parent="1">
          <mxGeometry x="150" y="120" width="50" height="40" as="geometry" />
        </mxCell>
        <mxCell id="RzWKUUiDs5_2_X1Qv3o_-3" value="" style="fontColor=#0066CC;verticalAlign=top;verticalLabelPosition=bottom;labelPosition=center;align=center;html=1;outlineConnect=0;fillColor=#CCCCCC;strokeColor=#6881B3;gradientColor=none;gradientDirection=north;strokeWidth=2;shape=mxgraph.networks.scanner;" vertex="1" parent="1">
          <mxGeometry x="150" y="240" width="50" height="40" as="geometry" />
        </mxCell>
        <mxCell id="RzWKUUiDs5_2_X1Qv3o_-4" value="" style="endArrow=none;dashed=1;html=1;dashPattern=1 3;strokeWidth=2;rounded=0;" edge="1" parent="1">
          <mxGeometry width="50" height="50" relative="1" as="geometry">
            <mxPoint x="174.41" y="420" as="sourcePoint" />
            <mxPoint x="174.41" y="340" as="targetPoint" />
          </mxGeometry>
        </mxCell>
        <mxCell id="RzWKUUiDs5_2_X1Qv3o_-5" value="" style="fontColor=#0066CC;verticalAlign=top;verticalLabelPosition=bottom;labelPosition=center;align=center;html=1;outlineConnect=0;fillColor=#CCCCCC;strokeColor=#6881B3;gradientColor=none;gradientDirection=north;strokeWidth=2;shape=mxgraph.networks.scanner;" vertex="1" parent="1">
          <mxGeometry x="150" y="480" width="50" height="40" as="geometry" />
        </mxCell>
        <mxCell id="RzWKUUiDs5_2_X1Qv3o_-6" value="Actor" style="shape=umlActor;verticalLabelPosition=bottom;verticalAlign=top;html=1;outlineConnect=0;" vertex="1" parent="1">
          <mxGeometry x="30" y="110" width="30" height="60" as="geometry" />
        </mxCell>
        <mxCell id="RzWKUUiDs5_2_X1Qv3o_-9" value="Actor" style="shape=umlActor;verticalLabelPosition=bottom;verticalAlign=top;html=1;outlineConnect=0;" vertex="1" parent="1">
          <mxGeometry x="30" y="230" width="30" height="60" as="geometry" />
        </mxCell>
        <mxCell id="RzWKUUiDs5_2_X1Qv3o_-10" value="Actor" style="shape=umlActor;verticalLabelPosition=bottom;verticalAlign=top;html=1;outlineConnect=0;" vertex="1" parent="1">
          <mxGeometry x="30" y="470" width="30" height="60" as="geometry" />
        </mxCell>
        <mxCell id="RzWKUUiDs5_2_X1Qv3o_-52" style="edgeStyle=orthogonalEdgeStyle;rounded=0;orthogonalLoop=1;jettySize=auto;html=1;entryX=0.5;entryY=1;entryDx=0;entryDy=0;entryPerimeter=0;" edge="1" parent="1" source="RzWKUUiDs5_2_X1Qv3o_-14" target="RzWKUUiDs5_2_X1Qv3o_-44">
          <mxGeometry relative="1" as="geometry" />
        </mxCell>
        <mxCell id="RzWKUUiDs5_2_X1Qv3o_-14" value="" style="rounded=0;whiteSpace=wrap;html=1;" vertex="1" parent="1">
          <mxGeometry x="320" y="80" width="120" height="520" as="geometry" />
        </mxCell>
        <mxCell id="RzWKUUiDs5_2_X1Qv3o_-18" value="&lt;font style=&quot;font-size: 23px;&quot;&gt;ARKIT&lt;/font&gt;" style="text;html=1;strokeColor=none;fillColor=none;align=center;verticalAlign=middle;whiteSpace=wrap;rounded=0;" vertex="1" parent="1">
          <mxGeometry x="350" y="10" width="60" height="30" as="geometry" />
        </mxCell>
        <mxCell id="RzWKUUiDs5_2_X1Qv3o_-19" value="&lt;font style=&quot;font-size: 23px;&quot;&gt;UPT&lt;/font&gt;" style="text;html=1;strokeColor=none;fillColor=none;align=center;verticalAlign=middle;whiteSpace=wrap;rounded=0;" vertex="1" parent="1">
          <mxGeometry x="80" y="10" width="60" height="30" as="geometry" />
        </mxCell>
        <mxCell id="RzWKUUiDs5_2_X1Qv3o_-54" style="edgeStyle=orthogonalEdgeStyle;rounded=0;orthogonalLoop=1;jettySize=auto;html=1;exitX=0.5;exitY=1;exitDx=0;exitDy=0;exitPerimeter=0;entryX=0.5;entryY=0;entryDx=0;entryDy=0;entryPerimeter=0;" edge="1" parent="1" source="RzWKUUiDs5_2_X1Qv3o_-20" target="RzWKUUiDs5_2_X1Qv3o_-28">
          <mxGeometry relative="1" as="geometry" />
        </mxCell>
        <mxCell id="RzWKUUiDs5_2_X1Qv3o_-20" value="" style="verticalLabelPosition=bottom;verticalAlign=top;html=1;shape=card;whiteSpace=wrap;size=20;arcSize=12;" vertex="1" parent="1">
          <mxGeometry x="590" y="80" width="220" height="120" as="geometry" />
        </mxCell>
        <mxCell id="RzWKUUiDs5_2_X1Qv3o_-21" value="INCOMING FILES" style="text;html=1;strokeColor=none;fillColor=none;align=center;verticalAlign=middle;whiteSpace=wrap;rounded=0;" vertex="1" parent="1">
          <mxGeometry x="640.5" y="30" width="120" height="30" as="geometry" />
        </mxCell>
        <mxCell id="RzWKUUiDs5_2_X1Qv3o_-22" value="" style="html=1;verticalLabelPosition=bottom;align=center;labelBackgroundColor=#ffffff;verticalAlign=top;strokeWidth=2;strokeColor=#0080F0;shadow=0;dashed=0;shape=mxgraph.ios7.icons.folder;" vertex="1" parent="1">
          <mxGeometry x="620" y="100.5" width="30" height="19.5" as="geometry" />
        </mxCell>
        <mxCell id="RzWKUUiDs5_2_X1Qv3o_-23" value="" style="html=1;verticalLabelPosition=bottom;align=center;labelBackgroundColor=#ffffff;verticalAlign=top;strokeWidth=2;strokeColor=#0080F0;shadow=0;dashed=0;shape=mxgraph.ios7.icons.folder;" vertex="1" parent="1">
          <mxGeometry x="680" y="100.5" width="30" height="19.5" as="geometry" />
        </mxCell>
        <mxCell id="RzWKUUiDs5_2_X1Qv3o_-24" value="" style="html=1;verticalLabelPosition=bottom;align=center;labelBackgroundColor=#ffffff;verticalAlign=top;strokeWidth=2;strokeColor=#0080F0;shadow=0;dashed=0;shape=mxgraph.ios7.icons.folder;" vertex="1" parent="1">
          <mxGeometry x="740" y="100.5" width="30" height="19.5" as="geometry" />
        </mxCell>
        <mxCell id="RzWKUUiDs5_2_X1Qv3o_-25" value="" style="html=1;verticalLabelPosition=bottom;align=center;labelBackgroundColor=#ffffff;verticalAlign=top;strokeWidth=2;strokeColor=#0080F0;shadow=0;dashed=0;shape=mxgraph.ios7.icons.folder;" vertex="1" parent="1">
          <mxGeometry x="620" y="140.5" width="30" height="19.5" as="geometry" />
        </mxCell>
        <mxCell id="RzWKUUiDs5_2_X1Qv3o_-26" value="" style="html=1;verticalLabelPosition=bottom;align=center;labelBackgroundColor=#ffffff;verticalAlign=top;strokeWidth=2;strokeColor=#0080F0;shadow=0;dashed=0;shape=mxgraph.ios7.icons.folder;" vertex="1" parent="1">
          <mxGeometry x="680" y="140.25" width="30" height="19.5" as="geometry" />
        </mxCell>
        <mxCell id="RzWKUUiDs5_2_X1Qv3o_-27" value="" style="html=1;verticalLabelPosition=bottom;align=center;labelBackgroundColor=#ffffff;verticalAlign=top;strokeWidth=2;strokeColor=#0080F0;shadow=0;dashed=0;shape=mxgraph.ios7.icons.folder;" vertex="1" parent="1">
          <mxGeometry x="740" y="140.25" width="30" height="19.5" as="geometry" />
        </mxCell>
        <mxCell id="RzWKUUiDs5_2_X1Qv3o_-55" style="edgeStyle=orthogonalEdgeStyle;rounded=0;orthogonalLoop=1;jettySize=auto;html=1;exitX=0.5;exitY=1;exitDx=0;exitDy=0;exitPerimeter=0;entryX=0.5;entryY=0;entryDx=0;entryDy=0;entryPerimeter=0;" edge="1" parent="1" source="RzWKUUiDs5_2_X1Qv3o_-28" target="RzWKUUiDs5_2_X1Qv3o_-29">
          <mxGeometry relative="1" as="geometry" />
        </mxCell>
        <mxCell id="RzWKUUiDs5_2_X1Qv3o_-62" style="edgeStyle=orthogonalEdgeStyle;rounded=0;orthogonalLoop=1;jettySize=auto;html=1;exitX=1;exitY=0.5;exitDx=0;exitDy=0;exitPerimeter=0;entryX=0.5;entryY=1;entryDx=0;entryDy=0;entryPerimeter=0;" edge="1" parent="1" source="RzWKUUiDs5_2_X1Qv3o_-28" target="RzWKUUiDs5_2_X1Qv3o_-30">
          <mxGeometry relative="1" as="geometry" />
        </mxCell>
        <mxCell id="RzWKUUiDs5_2_X1Qv3o_-28" value="" style="strokeWidth=2;html=1;shape=mxgraph.flowchart.decision;whiteSpace=wrap;" vertex="1" parent="1">
          <mxGeometry x="673" y="270" width="55" height="50" as="geometry" />
        </mxCell>
        <mxCell id="RzWKUUiDs5_2_X1Qv3o_-60" style="edgeStyle=orthogonalEdgeStyle;rounded=0;orthogonalLoop=1;jettySize=auto;html=1;exitX=0.5;exitY=1;exitDx=0;exitDy=0;exitPerimeter=0;" edge="1" parent="1" source="RzWKUUiDs5_2_X1Qv3o_-29">
          <mxGeometry relative="1" as="geometry">
            <mxPoint x="700.0588235294117" y="720" as="targetPoint" />
          </mxGeometry>
        </mxCell>
        <mxCell id="RzWKUUiDs5_2_X1Qv3o_-29" value="" style="verticalLabelPosition=bottom;verticalAlign=top;html=1;shape=card;whiteSpace=wrap;size=20;arcSize=12;" vertex="1" parent="1">
          <mxGeometry x="590" y="480" width="220" height="120" as="geometry" />
        </mxCell>
        <mxCell id="RzWKUUiDs5_2_X1Qv3o_-71" style="edgeStyle=orthogonalEdgeStyle;rounded=0;orthogonalLoop=1;jettySize=auto;html=1;exitX=1;exitY=0.5;exitDx=0;exitDy=0;exitPerimeter=0;entryX=0;entryY=0.5;entryDx=0;entryDy=0;" edge="1" parent="1" source="RzWKUUiDs5_2_X1Qv3o_-30" target="RzWKUUiDs5_2_X1Qv3o_-34">
          <mxGeometry relative="1" as="geometry">
            <Array as="points">
              <mxPoint x="1100" y="150" />
              <mxPoint x="1155" y="150" />
              <mxPoint x="1155" y="125" />
            </Array>
          </mxGeometry>
        </mxCell>
        <mxCell id="RzWKUUiDs5_2_X1Qv3o_-72" style="edgeStyle=orthogonalEdgeStyle;rounded=0;orthogonalLoop=1;jettySize=auto;html=1;exitX=1;exitY=0.5;exitDx=0;exitDy=0;exitPerimeter=0;entryX=0;entryY=0.5;entryDx=0;entryDy=0;" edge="1" parent="1" source="RzWKUUiDs5_2_X1Qv3o_-30" target="RzWKUUiDs5_2_X1Qv3o_-33">
          <mxGeometry relative="1" as="geometry">
            <Array as="points">
              <mxPoint x="1100" y="110" />
              <mxPoint x="1155" y="110" />
              <mxPoint x="1155" y="55" />
            </Array>
          </mxGeometry>
        </mxCell>
        <mxCell id="RzWKUUiDs5_2_X1Qv3o_-73" style="edgeStyle=orthogonalEdgeStyle;rounded=0;orthogonalLoop=1;jettySize=auto;html=1;entryX=0;entryY=0.25;entryDx=0;entryDy=0;" edge="1" parent="1" source="RzWKUUiDs5_2_X1Qv3o_-30" target="RzWKUUiDs5_2_X1Qv3o_-35">
          <mxGeometry relative="1" as="geometry">
            <Array as="points">
              <mxPoint x="1155" y="170" />
              <mxPoint x="1155" y="187" />
            </Array>
          </mxGeometry>
        </mxCell>
        <mxCell id="RzWKUUiDs5_2_X1Qv3o_-74" style="edgeStyle=orthogonalEdgeStyle;rounded=0;orthogonalLoop=1;jettySize=auto;html=1;exitX=1;exitY=0.5;exitDx=0;exitDy=0;exitPerimeter=0;entryX=0;entryY=0.25;entryDx=0;entryDy=0;" edge="1" parent="1" source="RzWKUUiDs5_2_X1Qv3o_-30" target="RzWKUUiDs5_2_X1Qv3o_-36">
          <mxGeometry relative="1" as="geometry">
            <Array as="points">
              <mxPoint x="1100" y="200" />
              <mxPoint x="1155" y="200" />
              <mxPoint x="1155" y="257" />
            </Array>
          </mxGeometry>
        </mxCell>
        <mxCell id="RzWKUUiDs5_2_X1Qv3o_-79" style="edgeStyle=orthogonalEdgeStyle;rounded=0;orthogonalLoop=1;jettySize=auto;html=1;entryX=0.5;entryY=0;entryDx=0;entryDy=0;entryPerimeter=0;" edge="1" parent="1">
          <mxGeometry relative="1" as="geometry">
            <mxPoint x="1120" y="200" as="sourcePoint" />
            <mxPoint x="1200" y="495" as="targetPoint" />
            <Array as="points">
              <mxPoint x="1060" y="200" />
              <mxPoint x="1060" y="348" />
              <mxPoint x="1200" y="348" />
            </Array>
          </mxGeometry>
        </mxCell>
        <mxCell id="RzWKUUiDs5_2_X1Qv3o_-30" value="" style="verticalLabelPosition=bottom;verticalAlign=top;html=1;shape=card;whiteSpace=wrap;size=20;arcSize=12;" vertex="1" parent="1">
          <mxGeometry x="880" y="80" width="220" height="120" as="geometry" />
        </mxCell>
        <mxCell id="RzWKUUiDs5_2_X1Qv3o_-32" value="" style="verticalLabelPosition=bottom;verticalAlign=top;html=1;shape=card;whiteSpace=wrap;size=20;arcSize=12;" vertex="1" parent="1">
          <mxGeometry x="1010" y="495" width="220" height="190" as="geometry" />
        </mxCell>
        <mxCell id="RzWKUUiDs5_2_X1Qv3o_-33" value="" style="rounded=1;whiteSpace=wrap;html=1;absoluteArcSize=1;arcSize=14;strokeWidth=2;" vertex="1" parent="1">
          <mxGeometry x="1210" y="40" width="100" height="30" as="geometry" />
        </mxCell>
        <mxCell id="RzWKUUiDs5_2_X1Qv3o_-34" value="SPLIT" style="rounded=1;whiteSpace=wrap;html=1;absoluteArcSize=1;arcSize=14;strokeWidth=2;" vertex="1" parent="1">
          <mxGeometry x="1210" y="110" width="100" height="30" as="geometry" />
        </mxCell>
        <mxCell id="RzWKUUiDs5_2_X1Qv3o_-35" value="TESSARACT" style="rounded=1;whiteSpace=wrap;html=1;absoluteArcSize=1;arcSize=14;strokeWidth=2;" vertex="1" parent="1">
          <mxGeometry x="1210" y="180" width="100" height="30" as="geometry" />
        </mxCell>
        <mxCell id="RzWKUUiDs5_2_X1Qv3o_-36" value="METADATA" style="rounded=1;whiteSpace=wrap;html=1;absoluteArcSize=1;arcSize=14;strokeWidth=2;" vertex="1" parent="1">
          <mxGeometry x="1210" y="250" width="100" height="30" as="geometry" />
        </mxCell>
        <mxCell id="RzWKUUiDs5_2_X1Qv3o_-37" value="ASSESMENT" style="text;html=1;strokeColor=none;fillColor=none;align=center;verticalAlign=middle;whiteSpace=wrap;rounded=0;" vertex="1" parent="1">
          <mxGeometry x="960" y="30" width="60" height="30" as="geometry" />
        </mxCell>
        <mxCell id="RzWKUUiDs5_2_X1Qv3o_-38" value="RESCAN" style="text;html=1;strokeColor=none;fillColor=none;align=center;verticalAlign=middle;whiteSpace=wrap;rounded=0;" vertex="1" parent="1">
          <mxGeometry x="605" y="450.5" width="60" height="30" as="geometry" />
        </mxCell>
        <mxCell id="RzWKUUiDs5_2_X1Qv3o_-39" value="FILE SERVER" style="text;html=1;strokeColor=none;fillColor=none;align=center;verticalAlign=middle;whiteSpace=wrap;rounded=0;" vertex="1" parent="1">
          <mxGeometry x="330" y="50" width="100" height="30" as="geometry" />
        </mxCell>
        <mxCell id="RzWKUUiDs5_2_X1Qv3o_-41" value="" style="image;html=1;image=img/lib/clip_art/computers/Server_128x128.png" vertex="1" parent="1">
          <mxGeometry x="355" y="110.5" width="50" height="49.5" as="geometry" />
        </mxCell>
        <mxCell id="RzWKUUiDs5_2_X1Qv3o_-42" value="" style="image;html=1;image=img/lib/clip_art/computers/Server_128x128.png" vertex="1" parent="1">
          <mxGeometry x="355" y="240.5" width="50" height="49.5" as="geometry" />
        </mxCell>
        <mxCell id="RzWKUUiDs5_2_X1Qv3o_-43" value="" style="image;html=1;image=img/lib/clip_art/computers/Server_128x128.png" vertex="1" parent="1">
          <mxGeometry x="355" y="480.5" width="50" height="49.5" as="geometry" />
        </mxCell>
        <mxCell id="RzWKUUiDs5_2_X1Qv3o_-53" style="edgeStyle=orthogonalEdgeStyle;rounded=0;orthogonalLoop=1;jettySize=auto;html=1;exitX=1;exitY=0.5;exitDx=0;exitDy=0;exitPerimeter=0;entryX=0;entryY=0;entryDx=0;entryDy=70;entryPerimeter=0;" edge="1" parent="1" source="RzWKUUiDs5_2_X1Qv3o_-44" target="RzWKUUiDs5_2_X1Qv3o_-20">
          <mxGeometry relative="1" as="geometry" />
        </mxCell>
        <mxCell id="RzWKUUiDs5_2_X1Qv3o_-44" value="" style="shape=cylinder3;whiteSpace=wrap;html=1;boundedLbl=1;backgroundOutline=1;size=15;" vertex="1" parent="1">
          <mxGeometry x="490" y="205" width="40" height="75" as="geometry" />
        </mxCell>
        <mxCell id="RzWKUUiDs5_2_X1Qv3o_-45" value="DATABASE" style="text;html=1;strokeColor=none;fillColor=none;align=center;verticalAlign=middle;whiteSpace=wrap;rounded=0;" vertex="1" parent="1">
          <mxGeometry x="470" y="185" width="40" height="15" as="geometry" />
        </mxCell>
        <mxCell id="RzWKUUiDs5_2_X1Qv3o_-48" value="DOCUMENT MANAGEMENT SYSTEM SERVER" style="text;html=1;strokeColor=none;fillColor=none;align=center;verticalAlign=middle;whiteSpace=wrap;rounded=0;" vertex="1" parent="1">
          <mxGeometry x="990" y="460" width="180" height="30" as="geometry" />
        </mxCell>
        <mxCell id="RzWKUUiDs5_2_X1Qv3o_-49" value="" style="image;html=1;image=img/lib/clip_art/computers/Server_Rack_128x128.png" vertex="1" parent="1">
          <mxGeometry x="1050" y="555" width="70" height="80" as="geometry" />
        </mxCell>
        <mxCell id="RzWKUUiDs5_2_X1Qv3o_-50" value="" style="shape=cylinder3;whiteSpace=wrap;html=1;boundedLbl=1;backgroundOutline=1;size=15;" vertex="1" parent="1">
          <mxGeometry x="1160" y="560" width="40" height="70" as="geometry" />
        </mxCell>
        <mxCell id="RzWKUUiDs5_2_X1Qv3o_-51" value="" style="endArrow=none;dashed=1;html=1;dashPattern=1 3;strokeWidth=2;rounded=0;" edge="1" parent="1">
          <mxGeometry width="50" height="50" relative="1" as="geometry">
            <mxPoint x="850" y="680" as="sourcePoint" />
            <mxPoint x="850" y="30" as="targetPoint" />
          </mxGeometry>
        </mxCell>
        <mxCell id="RzWKUUiDs5_2_X1Qv3o_-56" value="" style="html=1;verticalLabelPosition=bottom;align=center;labelBackgroundColor=#ffffff;verticalAlign=top;strokeWidth=2;strokeColor=#0080F0;shadow=0;dashed=0;shape=mxgraph.ios7.icons.folder;" vertex="1" parent="1">
          <mxGeometry x="625.5" y="510.5" width="30" height="19.5" as="geometry" />
        </mxCell>
        <mxCell id="RzWKUUiDs5_2_X1Qv3o_-57" value="" style="html=1;verticalLabelPosition=bottom;align=center;labelBackgroundColor=#ffffff;verticalAlign=top;strokeWidth=2;strokeColor=#0080F0;shadow=0;dashed=0;shape=mxgraph.ios7.icons.folder;" vertex="1" parent="1">
          <mxGeometry x="685.5" y="510.5" width="30" height="19.5" as="geometry" />
        </mxCell>
        <mxCell id="RzWKUUiDs5_2_X1Qv3o_-58" value="" style="html=1;verticalLabelPosition=bottom;align=center;labelBackgroundColor=#ffffff;verticalAlign=top;strokeWidth=2;strokeColor=#0080F0;shadow=0;dashed=0;shape=mxgraph.ios7.icons.folder;" vertex="1" parent="1">
          <mxGeometry x="745.5" y="510.5" width="30" height="19.5" as="geometry" />
        </mxCell>
        <mxCell id="RzWKUUiDs5_2_X1Qv3o_-63" value="" style="html=1;verticalLabelPosition=bottom;align=center;labelBackgroundColor=#ffffff;verticalAlign=top;strokeWidth=2;strokeColor=#0080F0;shadow=0;dashed=0;shape=mxgraph.ios7.icons.folder;" vertex="1" parent="1">
          <mxGeometry x="915" y="105.5" width="30" height="19.5" as="geometry" />
        </mxCell>
        <mxCell id="RzWKUUiDs5_2_X1Qv3o_-64" value="" style="html=1;verticalLabelPosition=bottom;align=center;labelBackgroundColor=#ffffff;verticalAlign=top;strokeWidth=2;strokeColor=#0080F0;shadow=0;dashed=0;shape=mxgraph.ios7.icons.folder;" vertex="1" parent="1">
          <mxGeometry x="975" y="105.5" width="30" height="19.5" as="geometry" />
        </mxCell>
        <mxCell id="RzWKUUiDs5_2_X1Qv3o_-65" value="" style="html=1;verticalLabelPosition=bottom;align=center;labelBackgroundColor=#ffffff;verticalAlign=top;strokeWidth=2;strokeColor=#0080F0;shadow=0;dashed=0;shape=mxgraph.ios7.icons.folder;" vertex="1" parent="1">
          <mxGeometry x="1035" y="105.5" width="30" height="19.5" as="geometry" />
        </mxCell>
        <mxCell id="RzWKUUiDs5_2_X1Qv3o_-66" value="" style="html=1;verticalLabelPosition=bottom;align=center;labelBackgroundColor=#ffffff;verticalAlign=top;strokeWidth=2;strokeColor=#0080F0;shadow=0;dashed=0;shape=mxgraph.ios7.icons.folder;" vertex="1" parent="1">
          <mxGeometry x="915" y="145.5" width="30" height="19.5" as="geometry" />
        </mxCell>
        <mxCell id="RzWKUUiDs5_2_X1Qv3o_-67" value="&lt;font style=&quot;font-size: 10px;&quot;&gt;DOCUMENT MEETS STANDART&lt;/font&gt;" style="text;html=1;strokeColor=none;fillColor=none;align=center;verticalAlign=middle;whiteSpace=wrap;rounded=0;" vertex="1" parent="1">
          <mxGeometry x="700" y="220" width="110" height="20" as="geometry" />
        </mxCell>
        <mxCell id="RzWKUUiDs5_2_X1Qv3o_-68" value="YES" style="text;html=1;strokeColor=none;fillColor=none;align=center;verticalAlign=middle;whiteSpace=wrap;rounded=0;" vertex="1" parent="1">
          <mxGeometry x="760" y="270" width="60" height="30" as="geometry" />
        </mxCell>
        <mxCell id="RzWKUUiDs5_2_X1Qv3o_-69" value="NO" style="text;html=1;strokeColor=none;fillColor=none;align=center;verticalAlign=middle;whiteSpace=wrap;rounded=0;" vertex="1" parent="1">
          <mxGeometry x="690" y="380" width="60" height="30" as="geometry" />
        </mxCell>
        <mxCell id="RzWKUUiDs5_2_X1Qv3o_-75" value="MERGE" style="text;html=1;strokeColor=none;fillColor=none;align=center;verticalAlign=middle;whiteSpace=wrap;rounded=0;" vertex="1" parent="1">
          <mxGeometry x="1230" y="40" width="60" height="30" as="geometry" />
        </mxCell>
        <mxCell id="RzWKUUiDs5_2_X1Qv3o_-76" value="" style="endArrow=classic;html=1;rounded=0;" edge="1" parent="1">
          <mxGeometry width="50" height="50" relative="1" as="geometry">
            <mxPoint x="100" y="720" as="sourcePoint" />
            <mxPoint x="100" y="600" as="targetPoint" />
          </mxGeometry>
        </mxCell>
        <mxCell id="RzWKUUiDs5_2_X1Qv3o_-77" value="" style="endArrow=none;html=1;rounded=0;" edge="1" parent="1">
          <mxGeometry width="50" height="50" relative="1" as="geometry">
            <mxPoint x="100" y="720" as="sourcePoint" />
            <mxPoint x="700.5" y="720" as="targetPoint" />
          </mxGeometry>
        </mxCell>
        <mxCell id="RzWKUUiDs5_2_X1Qv3o_-80" value="" style="endArrow=none;dashed=1;html=1;dashPattern=1 3;strokeWidth=2;rounded=0;" edge="1" parent="1">
          <mxGeometry width="50" height="50" relative="1" as="geometry">
            <mxPoint x="80" y="150" as="sourcePoint" />
            <mxPoint x="130" y="150" as="targetPoint" />
          </mxGeometry>
        </mxCell>
        <mxCell id="RzWKUUiDs5_2_X1Qv3o_-81" value="" style="endArrow=none;dashed=1;html=1;dashPattern=1 3;strokeWidth=2;rounded=0;" edge="1" parent="1">
          <mxGeometry width="50" height="50" relative="1" as="geometry">
            <mxPoint x="80" y="259.7" as="sourcePoint" />
            <mxPoint x="130" y="259.7" as="targetPoint" />
          </mxGeometry>
        </mxCell>
        <mxCell id="RzWKUUiDs5_2_X1Qv3o_-82" value="" style="endArrow=none;dashed=1;html=1;dashPattern=1 3;strokeWidth=2;rounded=0;" edge="1" parent="1">
          <mxGeometry width="50" height="50" relative="1" as="geometry">
            <mxPoint x="80" y="504.95" as="sourcePoint" />
            <mxPoint x="130" y="504.95" as="targetPoint" />
          </mxGeometry>
        </mxCell>
        <mxCell id="RzWKUUiDs5_2_X1Qv3o_-83" value="" style="endArrow=classic;html=1;rounded=0;entryX=-0.023;entryY=0.118;entryDx=0;entryDy=0;entryPerimeter=0;" edge="1" parent="1" target="RzWKUUiDs5_2_X1Qv3o_-14">
          <mxGeometry width="50" height="50" relative="1" as="geometry">
            <mxPoint x="220" y="140" as="sourcePoint" />
            <mxPoint x="280" y="120" as="targetPoint" />
          </mxGeometry>
        </mxCell>
        <mxCell id="RzWKUUiDs5_2_X1Qv3o_-84" value="" style="endArrow=classic;html=1;rounded=0;entryX=-0.023;entryY=0.118;entryDx=0;entryDy=0;entryPerimeter=0;" edge="1" parent="1">
          <mxGeometry width="50" height="50" relative="1" as="geometry">
            <mxPoint x="223" y="264.5" as="sourcePoint" />
            <mxPoint x="320" y="265.5" as="targetPoint" />
          </mxGeometry>
        </mxCell>
        <mxCell id="RzWKUUiDs5_2_X1Qv3o_-85" value="" style="endArrow=classic;html=1;rounded=0;entryX=-0.023;entryY=0.118;entryDx=0;entryDy=0;entryPerimeter=0;" edge="1" parent="1">
          <mxGeometry width="50" height="50" relative="1" as="geometry">
            <mxPoint x="223" y="504.75" as="sourcePoint" />
            <mxPoint x="320" y="505.75" as="targetPoint" />
          </mxGeometry>
        </mxCell>
        <mxCell id="RzWKUUiDs5_2_X1Qv3o_-90" value="" style="endArrow=none;dashed=1;html=1;dashPattern=1 3;strokeWidth=2;rounded=0;" edge="1" parent="1">
          <mxGeometry width="50" height="50" relative="1" as="geometry">
            <mxPoint x="1120" y="594.88" as="sourcePoint" />
            <mxPoint x="1145" y="594.88" as="targetPoint" />
          </mxGeometry>
        </mxCell>
      </root>
    </mxGraphModel>
  </diagram>
</mxfile>
